{
  "accessors": [
    {
      "bufferView": 0,
      "componentType": 5125,
      "count": 57555,
      "type": "SCALAR"
    },
    {
      "bufferView": 1,
      "componentType": 5126,
      "count": 25700,
      "max": [
        57.3558692932129,
        39.2626609802246,
        37.4793930053711
      ],
      "min": [
        -55.4218902587891,
        -10.0690488815308,
        -12.0644645690918
      ],
      "type": "VEC3"
    },
    {
      "bufferView": 2,
      "componentType": 5126,
      "count": 25700,
      "type": "VEC3"
    },
    {
      "bufferView": 3,
      "componentType": 5126,
      "count": 25700,
      "type": "VEC4"
    },
    {
      "bufferView": 4,
      "componentType": 5126,
      "count": 25700,
      "type": "VEC2"
    }
  ],
  "asset": {
    "generator": "Adobe Substance 3D Painter 8.2.0",
    "version": "2.0"
  },
  "bufferViews": [
    {
      "buffer": 0,
      "byteLength": 230220,
      "target": 34963
    },
    {
      "buffer": 0,
      "byteLength": 308400,
      "byteOffset": 230220,
      "target": 34962
    },
    {
      "buffer": 0,
      "byteLength": 308400,
      "byteOffset": 538620,
      "target": 34962
    },
    {
      "buffer": 0,
      "byteLength": 411200,
      "byteOffset": 847020,
      "target": 34962
    },
    {
      "buffer": 0,
      "byteLength": 205600,
      "byteOffset": 1258220,
      "target": 34962
    }
  ],
  "buffers": [
    {
      "byteLength": 1463820,
      "uri": "무제.bin"
    }
  ],
  "images": [
    {
      "uri": "standardSurface2SG_baseColor.png"
    },
    {
      "uri": "standardSurface2SG_occlusionRoughnessMetallic.png"
    },
    {
      "uri": "standardSurface2SG_normal.png"
    }
  ],
  "materials": [
    {
      "alphaMode": "OPAQUE",
      "name": "standardSurface2SG",
      "normalTexture": {
        "index": 2
      },
      "occlusionTexture": {
        "index": 1
      },
      "pbrMetallicRoughness": {
        "baseColorTexture": {
          "index": 0
        },
        "metallicRoughnessTexture": {
          "index": 1
        }
      }
    }
  ],
  "meshes": [
    {
      "name": "polySurface14",
      "primitives": [
        {
          "attributes": {
            "NORMAL": 2,
            "POSITION": 1,
            "TANGENT": 3,
            "TEXCOORD_0": 4
          },
          "indices": 0,
          "material": 0,
          "mode": 4
        }
      ]
    }
  ],
  "nodes": [
    {
      "children": [
        1
      ],
      "name": "lasttry.obj"
    },
    {
      "children": [
        2
      ],
      "name": "polySurface14"
    },
    {
      "mesh": 0,
      "name": "polySurface14"
    }
  ],
  "samplers": [
    {
      "magFilter": 9729,
      "minFilter": 9985,
      "wrapS": 10497,
      "wrapT": 10497
    }
  ],
  "scene": 0,
  "scenes": [
    {
      "name": "Scene",
      "nodes": [
        0
      ]
    }
  ],
  "textures": [
    {
      "sampler": 0,
      "source": 0
    },
    {
      "sampler": 0,
      "source": 1
    },
    {
      "sampler": 0,
      "source": 2
    }
  ]
}